<svg xmlns="http://www.w3.org/2000/svg" aria-hidden="true" style="position:absolute;width:0;height:0;overflow:hidden">
  <defs>
     <symbol id="icon-burger" viewBox="0 0 46 32">
      <path stroke-linecap="round" stroke-width="3.429" d="M8.671 5.074H44M8.671 24.468H44M19.602 14.771H44"/>
    </symbol>

     <symbol id="icon-close" viewBox="0 0 32 32">
      <path stroke-linecap="round" stroke-linejoin="round" stroke-width="3" d="M24 8 8 24M8 8l16 16"/>
    </symbol>

     <symbol id="icon-facebook" viewBox="0 0 32 32">
      <path d="M19.52 4.64h.96v3.6h-1.2c-.48 0-.96 0-1.2.24s-.24.48-.24 1.04v1.28h2.64v3.04h-2.64v13.2h-4.08V13.76H11.6v-3.04h2.16V9.68c0-1.76.24-3.04.72-3.6.72-1.04 2.16-1.52 4.32-1.52.24.08.48.08.72.08z"/>
    </symbol>
    <symbol id="icon-youtube" viewBox="0 0 32 32">
      <path d="M24.24 6c-1.36-.08-4.16-.16-8.4-.16h-.56c-4.08 0-6.8.08-8.16.24-1.84.16-3.12.64-3.84 1.28-.64.56-1.12 1.6-1.28 2.96-.08.88-.16 2.72-.16 5.52v.4c0 2.64.08 4.48.24 5.36.24 1.28.64 2.24 1.44 2.8.8.64 2.16 1.04 4.08 1.2 1.36.08 4.16.16 8.4.16h.56c4.08 0 6.8-.08 8.16-.24 1.84-.16 3.12-.64 3.84-1.28.64-.56 1.12-1.6 1.28-2.96.08-.88.16-2.72.16-5.52v-.4c0-2.64-.08-4.48-.24-5.36-.24-1.28-.64-2.24-1.44-2.8-.8-.64-2.16-1.04-4.08-1.2zm-3.12 9.84-8.8 5.28V10.56l8.8 5.28z"/>
    </symbol>
    <symbol id="icon-instagram" viewBox="0 0 32 32">
      <path d="M28.718 10.756a9.264 9.264 0 0 0-.596-3.145 6.547 6.547 0 0 0-3.743-3.737 9.42 9.42 0 0 0-3.108-.596c-1.368-.061-1.801-.078-5.273-.078s-3.916 0-5.274.078a9.413 9.413 0 0 0-3.106.596 6.541 6.541 0 0 0-3.743 3.737 9.288 9.288 0 0 0-.596 3.101c-.061 1.367-.08 1.8-.08 5.265s0 3.909.08 5.265a9.335 9.335 0 0 0 .596 3.104 6.548 6.548 0 0 0 3.744 3.735 9.37 9.37 0 0 0 3.106.639c1.369.061 1.803.08 5.274.08s3.916 0 5.274-.08a9.362 9.362 0 0 0 3.108-.595 6.555 6.555 0 0 0 3.743-3.737 9.35 9.35 0 0 0 .596-3.104c.061-1.365.08-1.798.08-5.265-.003-3.466-.003-3.906-.082-5.264zM15.99 22.531c-3.631 0-6.572-2.936-6.572-6.561s2.941-6.561 6.572-6.561c3.628 0 6.572 2.936 6.572 6.561s-2.944 6.561-6.572 6.561zm6.834-11.835a1.53 1.53 0 1 1 0-3.06 1.53 1.53 0 1 1 0 3.06z"/>
      <path d="M15.992 19.976a4.004 4.004 0 1 0 0-8.009 4.004 4.004 0 0 0 0 8.009z"/>
    </symbol>
    <symbol id="icon-arrow" viewBox="0 0 32 32">
      <path d="M16.947 17.867a1.334 1.334 0 0 1-1.894 0l-6.107-6.12a1.334 1.334 0 1 0-1.894 1.88l6.12 6.12a4.001 4.001 0 0 0 5.654 0l6.12-6.12a1.337 1.337 0 0 0-.434-2.172 1.331 1.331 0 0 0-1.46.292l-6.107 6.12z"/>
    </symbol>
     <symbol id="icon-moon" viewBox="0 0 32 32">
      <path d="M22.27 20.735c-5.926-.51-10.542-5.446-10.542-11.46 0-1.217.189-2.39.54-3.491l-.022.081a.5.5 0 0 0-.747-.568l.002-.001c-3.467 2.024-5.76 5.727-5.76 9.965 0 6.351 5.149 11.5 11.5 11.5 4.238 0 7.941-2.293 9.936-5.706l.029-.054a.5.5 0 0 0-.573-.734l.004-.001a11.288 11.288 0 0 1-3.394.511c-.342 0-.68-.015-1.014-.044l.043.003z"/>
    </symbol>
    <symbol id="icon-sun" viewBox="0 0 32 32">
      <path d="M6.733 8.79a1.46 1.46 0 0 0 2.066.009 1.455 1.455 0 0 0-.01-2.066L6.753 4.697a1.456 1.456 0 0 0-2.066-.01 1.451 1.451 0 0 0 .01 2.066L6.733 8.79zM30.533 14.546h-2.879c-.813 0-1.47.646-1.47 1.454 0 .804.644 1.454 1.47 1.454h2.879a1.454 1.454 0 1 0 0-2.908zM5.817 16c0-.803-.646-1.454-1.469-1.454H1.467C.656 14.546 0 15.192 0 16c0 .804.644 1.454 1.467 1.454h2.881c.811 0 1.469-.644 1.469-1.454zM16 7.271a8.726 8.726 0 0 0 0 17.45c4.816 0 8.725-3.907 8.725-8.725S20.816 7.271 16 7.271zm0 14.541a5.817 5.817 0 1 1 0-11.634 5.817 5.817 0 0 1 0 11.634zM6.733 23.211l-2.036 2.036a1.456 1.456 0 0 0-.01 2.066 1.455 1.455 0 0 0 2.066-.01l2.036-2.036a1.456 1.456 0 0 0 .01-2.066 1.452 1.452 0 0 0-2.066.01zM25.267 8.79l2.036-2.037c.574-.574.58-1.493.01-2.066a1.455 1.455 0 0 0-2.066.01l-2.036 2.036a1.456 1.456 0 0 0-.01 2.066c.57.567 1.485.571 2.066-.009zM16 26.183c-.804 0-1.454.646-1.454 1.47v2.879c0 .813.646 1.467 1.454 1.467.804 0 1.454-.643 1.454-1.467v-2.879c0-.813-.644-1.47-1.454-1.47zM25.267 23.211a1.453 1.453 0 1 0-2.056 2.056l2.036 2.036c.574.574 1.493.58 2.066.01a1.451 1.451 0 0 0-.01-2.066l-2.036-2.036zM16 5.817c.804 0 1.454-.644 1.454-1.469V1.469a1.454 1.454 0 1 0-2.908 0v2.879c0 .811.646 1.469 1.454 1.469z"/>
    </symbol>
  </defs>
</svg>