<svg width="20" height="20" viewBox="0 0 20 20" fill="none" xmlns="http://www.w3.org/2000/svg">
<g id="fi-rr-angle-small-left">
<path id="Vector" d="M10.5919 11.1667C10.5145 11.2448 10.4223 11.3068 10.3207 11.3492C10.2192 11.3915 10.1103 11.4132 10.0003 11.4132C9.89025 11.4132 9.78133 11.3915 9.67978 11.3492C9.57823 11.3068 9.48606 11.2448 9.40859 11.1667L5.59192 7.34174C5.51445 7.26364 5.42229 7.20164 5.32074 7.15933C5.21919 7.11702 5.11026 7.09524 5.00025 7.09524C4.89024 7.09524 4.78132 7.11702 4.67977 7.15933C4.57822 7.20164 4.48606 7.26364 4.40859 7.34174C4.25338 7.49788 4.16626 7.70909 4.16626 7.92924C4.16626 8.1494 4.25338 8.36061 4.40859 8.51674L8.23359 12.3417C8.70234 12.8099 9.33776 13.0729 10.0003 13.0729C10.6628 13.0729 11.2982 12.8099 11.7669 12.3417L15.5919 8.51674C15.7459 8.36153 15.8327 8.15203 15.8336 7.93341C15.8342 7.82374 15.8132 7.71502 15.7717 7.61349C15.7303 7.51195 15.6692 7.41961 15.5919 7.34174C15.5145 7.26364 15.4223 7.20164 15.3207 7.15933C15.2192 7.11702 15.1103 7.09524 15.0003 7.09524C14.8903 7.09524 14.7813 7.11702 14.6798 7.15933C14.5782 7.20164 14.4861 7.26364 14.4086 7.34174L10.5919 11.1667Z" fill="#4DC274"/>
</g>
</svg>
